<svg xmlns="http://www.w3.org/2000/svg" id="Call_Quality" viewBox="0 0 256 256">
  <path fill="#FF7900" stroke="#B54900" stroke-width="4" stroke-miterlimit="10" d="M203.6 105.2v80.3l16.7-12.7c4.3-3.7 6.8-9.2 6.8-14.9v-24.3c0-5.5-2.3-10.7-6.3-14.4l-17.2-14z"/>
  <path fill="#B54900" d="M235.9 146c0 4.4-3.6 8-8 8v-16c4.4 0 8 3.6 8 8z"/>
  <path fill="#FF7900" stroke="#B54900" stroke-width="4" stroke-miterlimit="10" d="M52.9 105.2v80.3l-16.7-12.7c-4.3-3.7-6.8-9.2-6.8-14.9v-24.3c0-5.5 2.3-10.7 6.3-14.4l17.2-14z"/>
  <path fill="#B54900" d="M20.6 146c0 4.4 3.6 8 8 8v-16c-4.4 0-8 3.6-8 8z"/>
  <circle cx="128.1" cy="146" r="82.1" fill="#F7F7F7" stroke="#333" stroke-width="8" stroke-miterlimit="10"/>
  <path d="M55.5 152.6c0-43.7 35.4-79.1 79.1-79.1 19.5 0 37.3 7 51.1 18.7-14.5-17.1-36.2-28-60.4-28-43.7 0-79.1 35.4-79.1 79.1 0 24.2 10.9 45.9 28 60.4-11.6-13.8-18.7-31.6-18.7-51.1z" opacity=".1"/>
  <path fill="none" stroke="#333" stroke-width="5" stroke-miterlimit="10" d="M20.2 146l-3.9-3.4c-3.1-2.8-4.1-7.5-2.8-11 13-40.7 22.5-78.1 41.1-85.7C86.2 33 128.2 33 128.2 33s41.8 0 73.4 12.8c18.6 7.6 28.1 45 41.1 85.7 1.3 3.5.3 8.3-2.8 11L236 146" stroke-linecap="round"/>
  <path d="M114.9 158.4l-17.6-17.6-17.5 17.6 35.1 35.1 61.4-61.4-17.5-17.6z" opacity=".1"/>
  <path fill="#FF7900" d="M114.9 150.4l-17.6-17.6-17.5 17.6 35.1 35.1 61.4-61.4-17.5-17.6z"/>
  <path d="M141.7 206.8h-28.2c-3.5 0-6.4 2.4-7.3 5.6 0 0-14.4.4-26.4-1.3-.4-.1 4.8 3.2 6.8 4.7 8.3 1 19.7.6 19.7.6.9 3.1 3.8 5.4 7.2 5.4h28.2c4.1 0 7.5-3.4 7.5-7.5.1-4.2-3.3-7.5-7.5-7.5z" opacity=".2"/>
  <path fill="none" stroke="#333" stroke-width="3" stroke-miterlimit="10" d="M20.8 147l-2.6 2.3c-2.1 1.8-2.7 5-1.9 7.4 8.7 27.2 11 37.1 23.4 42.2 21.1 8.6 49.1 8.6 49.1 8.6h16" stroke-linecap="round"/>
  <path fill="#B54900" d="M139.7 214.8h-28.2c-4.1 0-7.5-3.4-7.5-7.5s3.4-7.5 7.5-7.5h28.2c4.1 0 7.5 3.4 7.5 7.5.1 4.1-3.3 7.5-7.5 7.5z"/>
  <path d="M106.5 212.6c0-4.1 3.4-7.5 7.5-7.5h33.1c-.9-3.1-3.8-5.3-7.2-5.3h-28.2c-4.1 0-7.5 3.4-7.5 7.5 0 2.1.9 4 2.3 5.3z" opacity=".1"/>
</svg>
