<svg xmlns="http://www.w3.org/2000/svg" id="Layer_1" viewBox="0 0 100 125">
  <path fill="#FFE115" d="M50.4 29.2c-10.3 0-18.7 8.4-18.7 18.7 0 7.3 4.2 13.6 10.3 16.7v9.3c0 2.6 2.1 4.7 4.7 4.7H55c2.6 0 4.7-2.1 4.7-4.7v-9.7c5.7-3.2 9.5-9.3 9.5-16.3-.1-10.3-8.5-18.7-18.8-18.7zm-3.4 8c-.3.1-6.7 1.5-8.4 10.7-.1.7-.8 1.2-1.5 1.2h-.3c-.8-.1-1.4-.9-1.2-1.7 2-11.3 10.4-13.1 10.8-13.1.8-.2 1.6.4 1.8 1.2.1.7-.4 1.5-1.2 1.7z"/>
  <path fill="#FF7900" d="M50.1 24c.8 0 1.5-.7 1.5-1.5V11.3c0-.8-.7-1.5-1.5-1.5s-1.5.7-1.5 1.5v11.3c0 .7.7 1.4 1.5 1.4zm37.3 22.1H76.1c-.8 0-1.5.7-1.5 1.5s.7 1.5 1.5 1.5h11.3c.8 0 1.5-.7 1.5-1.5s-.7-1.5-1.5-1.5zm-62 1.5c0-.8-.7-1.5-1.5-1.5H12.6c-.8 0-1.5.7-1.5 1.5s.7 1.5 1.5 1.5h11.3c.8 0 1.5-.6 1.5-1.5zm43.8 16.8c-.6-.6-1.5-.6-2.1 0s-.6 1.5 0 2.1l8 8c.3.3.7.4 1.1.4s.8-.1 1.1-.4c.6-.6.6-1.5 0-2.1l-8.1-8zm-11.8 17H44.3c-.8 0-1.5.7-1.5 1.5s.7 1.5 1.5 1.5h13.1c.8 0 1.5-.7 1.5-1.5s-.7-1.5-1.5-1.5zm-1.6 4.9H46c-.8 0-1.5.7-1.5 1.5s.7 1.5 1.5 1.5h9.8c.8 0 1.5-.7 1.5-1.5s-.7-1.5-1.5-1.5zM30.9 65.1l-8 8c-.6.6-.6 1.5 0 2.1.3.3.7.4 1.1.4s.8-.1 1.1-.4l8-8c.6-.6.6-1.5 0-2.1-.7-.6-1.6-.6-2.2 0zm38-34.4c.4 0 .8-.1 1.1-.4l8-8c.6-.6.6-1.5 0-2.1s-1.5-.6-2.1 0l-8 8c-.6.6-.6 1.5 0 2.1.2.2.6.4 1 .4zm-37.5-.5c.3.3.7.4 1.1.4s.8-.1 1.1-.4c.6-.6.6-1.5 0-2.1l-8-8c-.6-.6-1.5-.6-2.1 0s-.6 1.5 0 2.1l7.9 8z"/>
</svg>
