<svg xmlns="http://www.w3.org/2000/svg" id="Technical_Check" viewBox="0 0 256 256">
  <path fill="#F7F7F7" stroke="#333" stroke-width="8" stroke-miterlimit="10" d="M222.8 107.1l-4.2-.4c-4-.4-8.7-.8-13.8-1.1-1.7-5.7-4-11.2-6.8-16.5 3.4-3.8 6.3-7.4 8.9-10.6l2.5-3.2-2.3-3.4c-6.6-9.3-14.6-17.4-23.7-23.7l-3.4-2.3-3.2 2.5c-3.2 2.5-6.8 5.7-10.6 8.9-5.3-3-10.8-5.1-16.5-6.8 0-4.9-.4-9.5-.8-13.5l-.4-4-4-.6c-11.2-1.9-22.4-1.9-33.6 0l-4 .6-.2 4c-.4 4-.8 8.7-1.1 13.8-5.7 1.7-11.2 4-16.5 6.8-3.8-3.4-7.4-6.3-10.6-8.9l-3.2-2.5-3.4 2.3c-9.3 6.6-17.4 14.6-23.7 23.7l-2.3 3.4 2.5 3.2c2.5 3.2 5.7 6.8 8.9 10.6-3 5.3-5.1 10.8-6.8 16.5-4.9 0-9.5.4-13.5.8l-4 .4-.6 4c-1.1 5.7-1.5 11.2-1.5 16.7s.4 11.2 1.5 16.7l.6 4 4 .4c4 .4 8.7.8 13.8 1.1 1.7 5.7 4 11.2 6.8 16.5-3.4 3.8-6.3 7.4-8.9 10.6l-2.5 3.2 2.3 3.4C55 193 63 201.1 72.1 207.4l3.4 2.3 3.2-2.5c3.2-2.5 6.8-5.7 10.6-8.9 5.3 3 10.8 5.1 16.5 6.8.4 5.1.6 9.7 1.1 13.8l.4 4 4 .6c5.7 1.1 11.2 1.5 16.7 1.5s11.2-.4 16.7-1.5l4-.6.4-4c.4-4 .8-8.7 1.1-13.8 5.7-1.7 11.2-4 16.5-6.8 3.8 3.4 7.4 6.3 10.6 8.9l3.2 2.5 3.4-2.3c9.3-6.6 17.4-14.6 23.7-23.7l2.3-3.4-2.5-3.2c-2.5-3.2-5.7-6.8-8.9-10.6 3-5.3 5.1-10.8 6.8-16.5 5.1-.4 9.7-.6 13.8-1.1l4-.4.6-4c1.1-5.7 1.5-11.2 1.5-16.7s-.4-11.2-1.5-16.7l-.9-4z"/>
  <path d="M160.9 102.7c4.3 6.6 6.9 14.5 6.9 22.9 0 23.1-18.7 41.8-41.8 41.8-10.5 0-20.1-3.9-27.4-10.3 7.5 11.4 20.3 18.9 34.9 18.9 23.1 0 41.8-18.7 41.8-41.8 0-12.6-5.6-23.9-14.4-31.5zM56.3 88.1l2-2.9c6.3-9.1 14.4-17.1 23.7-23.7l3.4-2.3 3.2 2.5c3.2 2.5 6.8 5.5 10.6 8.9 5.3-2.8 10.8-5.1 16.5-6.8.2-5.1.6-9.7 1.1-13.8l.2-4 4-.6c9.6-1.6 19.2-1.9 28.7-.7-.2-2.7-.4-5.3-.7-7.6l-.4-4-4-.6c-11.2-1.9-22.4-1.9-33.6 0l-4 .6-.2 4c-.4 4-.8 8.7-1.1 13.8-5.7 1.7-11.2 4-16.5 6.8-3.8-3.4-7.4-6.3-10.6-8.9l-3.2-2.5-3.4 2.3c-9.3 6.6-17.4 14.6-23.7 23.7L46 75.7l2.5 3.2c2.2 2.7 4.9 5.8 7.8 9.2zm153.2 92.8l.4-.5-1.1-1.4-.3.6c.3.4.7.8 1 1.3zm-93.7 37.2c-3.2-.9-6.3-2-9.3-3.3.1 1.4.2 2.8.4 4l.4 4 4 .6c1.7.3 3.3.6 5 .8-.2-1.9-.3-4-.5-6.1zm-74.9-77.2c0-5.5.4-11 1.5-16.7l.6-4 4-.4c4-.4 8.7-.8 13.5-.8 1.7-5.7 3.8-11.2 6.8-16.5-3.2-3.8-6.3-7.4-8.9-10.6L57 90c-2.8 5.1-4.8 10.4-6.4 15.9-4.9 0-9.5.4-13.5.8l-4 .4-.6 4c-1.1 5.7-1.5 11.2-1.5 16.7s.4 11.2 1.5 16.7l.6 4 4 .4c1.3.1 2.8.3 4.2.4-.3-2.7-.4-5.6-.4-8.4zm17.7 49.3c2.5-3.2 5.5-6.8 8.9-10.6-2.8-5.3-5.1-10.8-6.8-16.5l-5.1-.3c.6 1.3 1.2 2.5 1.9 3.8-3.4 3.8-6.3 7.4-8.9 10.6l-2.5 3.2 2.3 3.4c2.4 3.4 5 6.6 7.7 9.6l2.5-3.2zM201 86.1c3.4-3.8 6.3-7.4 8.9-10.6l2.5-3.2-2.3-3.4c-6.6-9.3-14.6-17.4-23.7-23.7l-3.4-2.3-3.2 2.5c-3.2 2.5-6.8 5.7-10.6 8.9-4.2-2.3-8.5-4.2-13-5.7v51.8H207c-1.4-4.8-3.5-9.6-6-14.3z" opacity=".1"/>
  <path fill="#FF7900" stroke="#FF7900" stroke-width="2" stroke-miterlimit="10" d="M170 128.7c0 22.8-18.5 41.2-41.2 41.2s-41.2-18.5-41.2-41.2 18.5-41.2 41.2-41.2 41.2 18.4 41.2 41.2zm-62.7-2c.2-5.8 1.2-11.3 2.9-16.4H96.4c-2.8 4.9-4.5 10.5-4.8 16.4h15.7zm19.4-16.4h-12.3c-1.8 5.1-2.9 10.6-3.1 16.4h15.4v-16.4zm0-18.8c-4.3 3.9-8 8.9-10.6 14.7h10.6V91.5zm-27.6 14.7h12.6c2.1-5.1 5-9.8 8.4-13.7-8.7 2-16.1 7.2-21 13.7zm66.8 20.5c-.3-6-2-11.5-4.8-16.4h-13.8c1.7 5.1 2.7 10.6 2.9 16.4h15.7zm-35.1 0h15.4c-.2-5.8-1.3-11.3-3.1-16.4h-12.3v16.4zm0-20.5h10.6c-2.6-5.8-6.3-10.8-10.6-14.7v14.7zm6.6-13.7c3.4 3.9 6.3 8.6 8.4 13.7h12.6c-4.9-6.5-12.3-11.7-21-13.7zm-45.8 38.2c.3 6 2 11.5 4.8 16.4h13.8c-1.7-5.1-2.7-10.6-2.9-16.4H91.6zm35.1 0h-15.4c.2 5.8 1.3 11.3 3.1 16.4h12.3v-16.4zm0 20.5h-10.6c2.6 5.8 6.3 10.8 10.6 14.7v-14.7zm-6.6 13.7c-3.4-3.9-6.3-8.6-8.4-13.7H99.1c4.9 6.5 12.3 11.7 21 13.7zm30.1-34.2c-.2 5.8-1.2 11.3-2.9 16.4h13.8c2.8-4.9 4.5-10.5 4.8-16.4h-15.7zm-19.4 16.4H143c1.8-5.1 2.9-10.6 3.1-16.4h-15.4v16.4zm0 18.8c4.3-3.9 8-8.9 10.6-14.7h-10.6v14.7zm27.6-14.7h-12.6c-2.1 5.1-5 9.8-8.4 13.7 8.7-2 16.1-7.2 21-13.7z"/>
  <path fill="#FFF" stroke="#B54900" stroke-width="3" stroke-miterlimit="10" d="M163.3 33.6h68.5v60h-68.5z"/>
  <path fill="#B54900" d="M163.3 32.6h68.5v17.6h-68.5z"/>
  <circle cx="222.4" cy="41.1" r="3.9" fill="#FFF"/>
  <path d="M225.4 38.8c.5.7.9 1.5.9 2.4 0 2.1-1.7 3.8-3.8 3.8-.9 0-1.8-.3-2.4-.9.7.9 1.8 1.4 3 1.4 2.1 0 3.8-1.7 3.8-3.8-.1-1.2-.6-2.2-1.5-2.9z" opacity=".1"/>
  <path d="M220.1 44.1c0-2.3 1.8-4.1 4.1-4.1.8 0 1.6.3 2.3.7-.2-2.1-2-3.7-4.1-3.7-2.3 0-4.1 1.8-4.1 4.1 0 1.4.7 2.7 1.8 3.4v-.4zm-34.5 29.2l5.2-5.4c.9-.9.9-2.4 0-3.3-.9-.9-2.4-.9-3.3 0l-6.6 7.1c-.9.9-.7 2.4 0 3.3l6.6 7.1c.9.9 2.4.9 3.3 0s.9-2.4 0-3.3l-5.2-5.5zm20.9 5.4c-.9.9-.9 2.4 0 3.3.9.9 2.4.9 3.3 0l7.1-7.1c.9-.9.9-2.4 0-3.3l-7.1-7.1c-.9-.9-2.4-.9-3.3 0-.9.9-.9 2.4 0 3.3l5.4 5.4-5.4 5.5zm-8.1 2.4l4.7-14.2c.5-1.2-.2-2.6-1.4-3.1s-2.6.2-3.1 1.4l-4.7 14.2c-.5 1.2.2 2.6 1.4 3.1 1.4.5 2.9-.2 3.1-1.4z" opacity=".1"/>
  <circle cx="211.1" cy="41.1" r="3.9" fill="#FFF"/>
  <path d="M214.2 38.8c.5.7.9 1.5.9 2.4 0 2.1-1.7 3.8-3.8 3.8-.9 0-1.8-.3-2.4-.9.7.9 1.8 1.4 3 1.4 2.1 0 3.8-1.7 3.8-3.8-.1-1.2-.7-2.2-1.5-2.9z" opacity=".1"/>
  <path d="M208.8 44.1c0-2.3 1.8-4.1 4.1-4.1.8 0 1.6.3 2.3.7-.2-2.1-2-3.7-4.1-3.7-2.3 0-4.1 1.8-4.1 4.1 0 1.4.7 2.7 1.8 3.4v-.4z" opacity=".1"/>
  <path fill="#FF7900" d="M183.6 70.3l5.2-5.4c.9-.9.9-2.4 0-3.3s-2.4-.9-3.3 0l-6.6 7.1c-.9.9-.7 2.4 0 3.3l6.6 7.1c.9.9 2.4.9 3.3 0s.9-2.4 0-3.3l-5.2-5.5zm20.9 5.4c-.9.9-.9 2.4 0 3.3.9.9 2.4.9 3.3 0l7.1-7.1c.9-.9.9-2.4 0-3.3l-7.1-7.1c-.9-.9-2.4-.9-3.3 0s-.9 2.4 0 3.3l5.4 5.4-5.4 5.5zm-8.1 2.4l4.7-14.2c.5-1.2-.2-2.6-1.4-3.1s-2.6.2-3.1 1.4l-4.7 14.2c-.5 1.2.2 2.6 1.4 3.1 1.4.5 2.9-.2 3.1-1.4z"/>
</svg>
